<svg xmlns="http://www.w3.org/2000/svg" width="292.36979" height="282.168" viewBox="0 0 292.36979 282.168"><title>Risorsa 82</title><g id="Livello_2" data-name="Livello 2"><g id="Livello_1-2" data-name="Livello 1"><path d="M229.37228,263.699a11.43313,11.43313,0,0,1-2.97314.92969,16.84693,16.84693,0,0,1-2.7766.287,22.31186,22.31186,0,0,1-7.09435-.99209,12.67477,12.67477,0,0,1-4.82317-2.80779,11.10353,11.10353,0,0,1-2.77971-4.38015,16.91756,16.91756,0,0,1-.89538-5.62183,17.12645,17.12645,0,0,1,.86418-5.24121,14.34718,14.34718,0,0,1,2.7142-4.88556,14.69693,14.69693,0,0,1,4.69837-3.64389,15.11746,15.11746,0,0,1,6.86662-1.4351q8.24087,0,12.42916,5.079,4.1836,5.0821,4.18361,14.60052a34.30218,34.30218,0,0,1-1.62852,11.05022,19.7194,19.7194,0,0,1-5.04779,8.05525,22.22686,22.22686,0,0,1-8.72287,4.94795,42.82811,42.82811,0,0,1-12.58515,1.75955c-.04368-1.36646-.10608-2.683-.19343-3.9621-.08423-1.27911-.16847-2.59565-.25582-3.96211a46.49977,46.49977,0,0,0,6.58271-.54284,18.06341,18.06341,0,0,0,5.1757-1.59732,11.81629,11.81629,0,0,0,3.79988-2.97A13.46045,13.46045,0,0,0,229.37228,263.699Zm-4.66406-6.19586a17.1687,17.1687,0,0,0,3.06674-.287,6.44825,6.44825,0,0,0,2.36478-.79866v-.574a4.02173,4.02173,0,0,1,.0312-.51164,4.1893,4.1893,0,0,0,.0312-.44925,33.7724,33.7724,0,0,0-.38373-4.31152,11.6754,11.6754,0,0,0-1.08568-3.51286,6.04254,6.04254,0,0,0-2.07777-2.36479,5.74425,5.74425,0,0,0-3.22584-.86105,5.45079,5.45079,0,0,0-2.683.63643,5.35639,5.35639,0,0,0-1.85315,1.65972,7.764,7.764,0,0,0-1.05448,2.24,8.47323,8.47323,0,0,0-.35253,2.36479,6.88592,6.88592,0,0,0,1.694,5.11018Q220.874,257.5,224.70822,257.5031Z" style="fill:#fff"/><path d="M256.33645,276.22172a5.3615,5.3615,0,0,1-1.822,4.38015,6.41971,6.41971,0,0,1-8.24243,0,6.16865,6.16865,0,0,1,0-8.75407,6.39929,6.39929,0,0,1,8.24243,0A5.34029,5.34029,0,0,1,256.33645,276.22172Z" style="fill:#fff"/><path d="M292.36979,259.038q0,11.175-4.24913,17.15249a14.48643,14.48643,0,0,1-23.44819,0q-4.24912-5.97124-4.24912-17.15249a39.06151,39.06151,0,0,1,1.12-9.83976,21.53894,21.53894,0,0,1,3.22584-7.21914,14.40941,14.40941,0,0,1,5.04779-4.47375,13.9953,13.9953,0,0,1,6.5796-1.53493,13.593,13.593,0,0,1,11.72409,5.97748Q292.36979,247.91916,292.36979,259.038Zm-9.71185,0a52.21183,52.21183,0,0,0-.31821-6.03988,21.96166,21.96166,0,0,0-1.02329-4.69837,7.30335,7.30335,0,0,0-1.91554-3.06362,4.34838,4.34838,0,0,0-3.00433-1.08568,4.21962,4.21962,0,0,0-2.97,1.08568,7.69293,7.69293,0,0,0-1.91553,3.06362,20.2979,20.2979,0,0,0-1.05449,4.69837,51.48346,51.48346,0,0,0-.32133,6.03988,52.34618,52.34618,0,0,0,.32133,6.07107,20.23115,20.23115,0,0,0,1.05449,4.72333,7.67489,7.67489,0,0,0,1.91553,3.06985,4.21957,4.21957,0,0,0,2.97,1.08568,4.34833,4.34833,0,0,0,3.00433-1.08568,7.28809,7.28809,0,0,0,1.91554-3.06985,21.87481,21.87481,0,0,0,1.02329-4.72333A53.08827,53.08827,0,0,0,282.65794,259.038Z" style="fill:#fff"/><path d="M152.29662,60.055C132.45668,40.2244,113.52748,21.32031,107.89389,0,102.26,21.32031,83.32779,40.2244,63.49117,60.055,33.73608,89.79125,0,123.49285,0,174.03945a107.89706,107.89706,0,1,0,215.79412,0c0-50.54329-33.73332-84.2482-63.4975-113.9845M45.85962,199.18124c-6.61579-.22465-31.032-42.30942,14.264-87.11921l29.97421,32.74173a2.56218,2.56218,0,0,1-.20008,3.82343c-7.15258,7.33582-37.63873,37.90726-41.42794,48.47813-.78212,2.1819-1.9244,2.09938-2.61022,2.07592m62.03758,55.46649a37.1083,37.1083,0,0,1-37.10856-37.10857c0-9.39547,3.73511-17.76815,9.2492-24.51118,6.69113-8.182,27.8544-31.19458,27.8544-31.19458s20.83926,23.3504,27.80444,31.11648a36.29012,36.29012,0,0,1,9.30909,24.58928,37.10866,37.10866,0,0,1-37.10857,37.10857m71.02571-60.17692c-.79979,1.74916-2.6141,4.66931-5.06287,4.75845-4.36489.159-4.8313-2.07758-8.05751-6.85231-7.083-10.48173-68.89624-75.08371-80.45787-87.57762-10.16959-10.989-1.43207-18.73629,2.621-22.79623,5.08494-5.094,19.9277-19.92771,19.9277-19.92771s44.25756,41.99149,62.69358,70.68322,12.08241,53.51918,8.336,61.7122" style="fill:#fff"/></g></g></svg>
